inDegrees=yes
name=ik_S47_A03_T02
DataType=double
version=3
OpenSimVersion=4.3-2021-08-27-4bc7ad9
endheader
time	pelvis_tilt	pelvis_list	pelvis_rotation	pelvis_tx	pelvis_ty	pelvis_tz	hip_flexion_r	hip_adduction_r	hip_rotation_r	knee_angle_r	knee_angle_r_beta	ankle_angle_r	subtalar_angle_r	mtp_angle_r	hip_flexion_l	hip_adduction_l	hip_rotation_l	knee_angle_l	knee_angle_l_beta	ankle_angle_l	subtalar_angle_l	mtp_angle_l	lumbar_extension	lumbar_bending	lumbar_rotation	arm_flex_r	arm_add_r	arm_rot_r	elbow_flex_r	pro_sup_r	wrist_flex_r	wrist_dev_r	arm_flex_l	arm_add_l	arm_rot_l	elbow_flex_l	pro_sup_l	wrist_flex_l	wrist_dev_l
0	0	0	0	0	0.9399999999999999	0	0	0	0	0	0	0	0	0	0	0	0	0	0	0	0	0	0	0	0	0	0	0	0	89.99999999963507	0	0	0	0	0	0	89.99999999869995	0	0
0.02	-2.147412818847958	-0.1664381027592501	-82.79879573434684	0	0.9399999999999999	0	0.5331270773715707	-1.122303920978095	-3.189853652354655	2.688399531114897	0.0469214234270267	0	0	0	-0.1567005029581172	-2.339637451332834	-7.098327536239086	-9.823426809296311	-0.1714511416509018	0	0	0	0	0	0	1.767373631477196	-1.767373631477196	0.3147751513429188	8.782098567873593	89.68522486678809	0	0	1.767373631477196	-1.767373631477196	0.3147751513429188	8.782098567873593	89.68522486591199	0	0
0.04	-2.165824012324996	-0.1691488045065283	-82.83772337167871	0	0.9399999999999999	0	0.5763866268730433	-1.092350782606096	-3.152183751431211	2.667418053900389	0.04655522756770136	0	0	0	-0.1512598747427223	-2.402852945923577	-7.126186176510217	-9.821414595771584	-0.1714160218996421	0	0	0	0	0	0	1.847200103463273	-1.847200103463273	0.3293425661194823	9.267625990882046	89.67065745287179	0	0	1.847200103463273	-1.847200103463273	0.3293425661194823	9.267625990882046	89.67065745199844	0	0
0.06	-2.170696962264562	-0.2204410835901136	-82.8769127334907	0	0.9399999999999999	0	0.5542084390310532	-1.072267958328019	-3.108050334172996	2.672254582930929	0.04663964092365257	0	0	0	-0.2048515230061187	-2.434755162180301	-7.170501926819426	-9.822141233577804	-0.1714287041218301	0	0	0	0	0	0	1.893683448023413	-1.893683448023413	0.3379378570829796	9.563988350938232	89.66206216241714	0	0	1.893683448023413	-1.893683448023413	0.3379378570829796	9.563988350938232	89.66206216154542	0	0
0.08	-2.165106396300867	-0.2482095929797634	-82.92057244070455	0	0.9399999999999999	0	0.5544846952658918	-1.059866705957391	-3.048490848780482	2.665078891419844	0.04651440148067673	0	0	0	-0.2125944104321086	-2.444524040947158	-7.161445727682386	-9.820628941276643	-0.1714023096419223	0	0	0	0	0	0	1.965622784726411	-1.965622784726411	0.3515764637131393	10.07284215756264	89.6484235565981	0	0	1.965622784726411	-1.965622784726411	0.3515764637131393	10.07284215756264	89.64842355572895	0	0
0.1	-2.156695355144211	-0.2610322512188081	-82.92427562637634	0	0.9399999999999999	0	0.5800293303402172	-1.047925610529189	-3.057777422013431	2.69524104685576	0.04704083040253177	0	0	0	-0.2153664739527827	-2.45966408024237	-7.146264205192727	-9.822384091524734	-0.1714329427926187	0	0	0	0	0	0	1.992460899059587	-1.992460899059587	0.3566374764097649	10.25441072394577	89.64336254420218	0	0	1.992460899059587	-1.992460899059587	0.3566374764097649	10.25441072394577	89.64336254333398	0	0
0.12	-2.161589726882123	-0.2892217438357876	-82.90415836399394	0	0.9399999999999999	0	0.5692846275827702	-1.026048432178697	-3.088430136421441	2.669753369286823	0.04659598651026713	0	0	0	-0.2286845062452817	-2.487627059920804	-7.071718252506384	-9.8137523811563	-0.171282291026611	0	0	0	0	0	0	2.113019523264269	-2.113019523264269	0.3793902915342808	11.05382472096301	89.62060973042951	0	0	2.113019523264269	-2.113019523264269	0.3793902915342808	11.05382472096301	89.6206097295656	0	0
0.14	-2.154499967564334	-0.3257328196547445	-82.96805144728158	0	0.9399999999999999	0	0.5885659062227563	-1.020497005716037	-3.013035965719392	2.786209842751837	0.04862853540749302	0	0	0	-0.2725156747244317	-2.491046054235304	-7.150020853458194	-9.823872866795588	-0.1714589268229173	0	0	0	0	0	0	2.396982530070507	-2.396982530070507	0.4320806353935103	12.73502914597059	89.56791938969036	0	0	2.396982530070507	-2.396982530070507	0.4320806353935103	12.73502914597059	89.56791938883634	0	0
0.16	-2.179854480084852	-0.3849988166960713	-82.93286228036369	0	0.9399999999999999	0	0.5145702912176564	-0.9562555750380463	-3.052214471196352	2.68084035801134	0.04678949096764144	0	0	0	-0.3112177295800345	-2.573011368697021	-7.061719227600873	-9.818414684983427	-0.1713636635791226	0	0	0	0	0	0	2.403173998081919	-2.403173998081919	0.4334206210628424	12.79742936796846	89.5665794041025	0	0	2.403173998081919	-2.403173998081919	0.4334206210628424	12.79742936796846	89.56657940324872	0	0
0.18	-2.167492897262504	-0.4187445675740559	-82.95599979251537	0	0.9399999999999999	0	0.5352300501719945	-0.9606624174007121	-3.00155000100757	2.716938405621745	0.04741952075198467	0	0	0	-0.3460304783074578	-2.565427233191169	-7.103355457951397	-9.819823712309709	-0.1713882557452168	0	0	0	0	0	0	2.430140964323917	-2.430140964323917	0.4385868670585996	12.98152720243482	89.56141315841448	0	0	2.430140964323917	-2.430140964323917	0.4385868670585996	12.98152720243482	89.56141315756167	0	0
0.2	-2.171990193762903	-0.477774809678559	-82.95295206578253	0	0.9399999999999999	0	0.5088850695904394	-0.9173302057931778	-2.975077259519304	2.764986294461283	0.04825811461086683	0	0	0	-0.353330861682404	-2.58982036575778	-7.071355734924005	-9.81563309286723	-0.1713151156382475	0	0	0	0	0	0	2.482098241082343	-2.482098241082343	0.4484779393934001	13.31089287420756	89.55152208666799	0	0	2.482098241082343	-2.482098241082343	0.4484779393934001	13.31089287420756	89.55152208581703	0	0
0.22	-2.161433761177946	-0.5178255809068976	-82.91884144087366	0	0.9399999999999999	0	0.5273918189790527	-0.921673339403297	-2.993333814137344	2.841733509629341	0.04959760620728598	0	0	0	-0.3753415780995705	-2.621403589187609	-7.069855362302222	-9.815942576553637	-0.1713205171475565	0	0	0	0	0	0	2.559418666706721	-2.559418666706721	0.4633539758270613	13.81013548812722	89.53664605112068	0	0	2.559418666706721	-2.559418666706721	0.4633539758270613	13.81013548812722	89.53664605027251	0	0
0.24	-2.157637253265827	-0.5618562728086115	-82.88597947693256	0	0.9399999999999999	0	0.5247005102373115	-0.9194697433055679	-2.987795282547866	2.868335813327514	0.05006190399543457	0	0	0	-0.4010755417891657	-2.648542404531299	-7.047770867585747	-9.782333741753114	-0.1707339323225285	0	0	0	0	0	0	2.589260883318558	-2.589260883318558	0.4691223599776826	14.00541319035267	89.53087766731406	0	0	2.589260883318558	-2.589260883318558	0.4691223599776826	14.00541319035267	89.53087766646696	0	0
0.26	-2.170653348496793	-0.5967625062553018	-82.85270874750707	0	0.9399999999999999	0	0.5260722023382368	-0.8875826596996282	-2.980301641752629	2.859574464789898	0.04990898961653837	0	0	0	-0.4188583526515499	-2.694869749315596	-7.022058063733783	-9.811897870099036	-0.171249923702647	0	0	0	0	0	0	2.61824525406392	-2.61824525406392	0.4747534910295945	14.20094474390633	89.5252465365983	0	0	2.61824525406392	-2.61824525406392	0.4747534910295945	14.20094474390633	89.52524653575226	0	0
0.28	-2.158802994382177	-0.6213414795677428	-82.83188216009908	0	0.9399999999999999	0	0.5310315721128688	-0.8911939707391821	-2.964195278482697	2.886953771603746	0.05038684866735375	0	0	0	-0.4168521879684277	-2.711911429740539	-7.040104417077316	-9.807758951991337	-0.1711776859541973	0	0	0	0	0	0	2.656344746638283	-2.656344746638283	0.4821139113385682	14.44599444961554	89.51788611672816	0	0	2.656344746638283	-2.656344746638283	0.4821139113385682	14.44599444961554	89.51788611588351	0	0
0.3	-2.155032025686601	-0.6505265934086198	-82.75679876944098	0	0.9399999999999999	0	0.5208382759305595	-0.8783213017829389	-2.973675633636701	2.882101849331391	0.05030216664865031	0	0	0	-0.4255757757023159	-2.718759541890175	-7.019016481090762	-9.804540467873327	-0.1711215128094149	0	0	0	0	0	0	2.720578404618275	-2.720578404618275	0.4945603862237196	14.8571320176998	89.50543964258544	0	0	2.720578404618275	-2.720578404618275	0.4945603862237196	14.8571320176998	89.50543964174311	0	0
0.32	-2.154620939304279	-0.6917301038085737	-82.55416286990868	0	0.9399999999999999	0	0.4987412488888279	-0.8658872351364817	-3.125181846511694	2.86530514048393	0.05000900877576324	0	0	0	-0.44504349041867	-2.766768367597287	-6.881844742036523	-9.803005404266083	-0.1710947208952409	0	0	0	0	0	0	2.749114473087494	-2.749114473087494	0.5001126902006332	15.04413299894986	89.49988733893997	0	0	2.749114473087494	-2.749114473087494	0.5001126902006332	15.04413299894986	89.49988733809872	0	0
0.34	-2.145336073627479	-0.6878537711673475	-82.47553872538811	0	0.9399999999999999	0	0.5265530945082496	-0.8635933678540096	-3.143140817604277	2.869832767217714	0.05008803076956909	0	0	0	-0.4326123172428574	-2.78716385835452	-6.914672557413872	-9.799510643178543	-0.1710337258076928	0	0	0	0	0	0	2.775936877627771	-2.775936877627771	0.5053385420646078	15.22008780502003	89.49466148738806	0	0	2.775936877627771	-2.775936877627771	0.5053385420646078	15.22008780502003	89.49466148654777	0	0
0.36	-2.148327532375368	-0.6951953006603376	-82.36041003949286	0	0.9399999999999999	0	0.5197999215095248	-0.8365130064373764	-3.176059156082525	2.8526626547744	0.04978835577449561	0	0	0	-0.4208186716945311	-2.805600697067482	-6.90032894318538	-9.803370108498973	-0.1711010861849008	0	0	0	0	0	0	2.782074380094473	-2.782074380094473	0.506579761894222	15.27264598053697	89.4934202676332	0	0	2.782074380094473	-2.782074380094473	0.506579761894222	15.27264598053697	89.49342026679311	0	0
0.3800000000000001	-2.150327801247776	-0.7155352855343368	-82.32006607548384	0	0.9399999999999999	0	0.4984500157305306	-0.8272744390142832	-3.127072978303345	2.747630879831066	0.04795520548252077	0	0	0	-0.4462300135006476	-2.857082062154266	-6.98218090310391	-9.800447791249837	-0.1710500821271156	0	0	0	0	0	0	2.78025091536703	-2.78025091536703	0.506284300336815	15.273397426955	89.49371572917372	0	0	2.78025091536703	-2.78025091536703	0.506284300336815	15.273397426955	89.49371572833356	0	0
0.4000000000000001	-2.161829925723892	-0.6724737814230721	-82.20732187858877	0	0.9399999999999999	0	0.5904028562924252	-0.8187968730303137	-3.157598732320173	2.792406960002531	0.04873669550764976	0	0	0	-0.4303377607774118	-2.951386062672638	-7.171135339675257	-9.802980230711757	-0.1710942815338335	0	0	0	0	0	0	2.783290680861897	-2.783290680861897	0.506873395991802	15.29290667853913	89.49312663355387	0	0	2.783290680861897	-2.783290680861897	0.506873395991802	15.29290667853913	89.49312663271382	0	0
0.4200000000000001	-2.195307646750329	-0.6547060397870972	-82.04751090719226	0	0.9399999999999999	0	0.6173502153754101	-0.7813921453314627	-3.276284400525712	2.802559698525354	0.04891389422296709	0	0	0	-0.3983021049868793	-3.024557913762133	-7.145847167843977	-9.80802501531651	-0.1711823296352404	0	0	0	0	0	0	2.824610218334155	-2.824610218334155	0.514896380603281	15.55537276616039	89.48510364942111	0	0	2.824610218334155	-2.824610218334155	0.514896380603281	15.55537276616039	89.48510364858257	0	0
0.4400000000000001	-2.171675772332341	-0.6434732395396359	-81.97578962185332	0	0.9399999999999999	0	0.651127635676949	-0.8011785320540191	-3.28661826746661	2.854058345234799	0.04981271516836826	0	0	0	-0.3807467812166117	-2.994798997203082	-7.111969330355445	-9.810538704870609	-0.1712262017943324	0	0	0	0	0	0	2.90513630777866	-2.90513630777866	0.5303951524732722	16.03964168882776	89.4696048784742	0	0	2.90513630777866	-2.90513630777866	0.5303951524732722	16.03964168882776	89.46960487763855	0	0
0.4600000000000001	-2.191008701108889	-0.6464827233807613	-81.86289963346772	0	0.9399999999999999	0	0.6539225988149794	-0.7915214100771029	-3.344871576961295	2.842052813926218	0.04960317911858225	0	0	0	-0.3772725868231632	-3.054337944961276	-7.108068922284388	-9.808785448848226	-0.1711956017041114	0	0	0	0	0	0	2.922142310908681	-2.922142310908681	0.5337188010157927	16.1498183435113	89.46628123013022	0	0	2.922142310908681	-2.922142310908681	0.5337188010157927	16.1498183435113	89.46628122929519	0	0
0.4800000000000001	-2.187823934036427	-0.6311113672682754	-81.79348505181129	0	0.9399999999999999	0	0.6847807405653659	-0.7839625077419315	-3.398380631071916	2.813436921302655	0.04910373757390392	0	0	0	-0.384685275822841	-3.079444842680761	-7.167312591344496	-9.812598204793032	-0.1712621468489232	0	0	0	0	0	0	2.931375862258986	-2.931375862258986	0.5355387047928056	16.21206416143971	89.46446132646211	0	0	2.931375862258986	-2.931375862258986	0.5355387047928056	16.21206416143971	89.46446132562741	0	0
